<mxfile host="app.diagrams.net" modified="2021-02-01T10:50:36.402Z" agent="5.0 (Windows)" etag="CF97DM3ZkKxuLZlhIdEF" version="14.2.9" type="github">
  <diagram id="3oyVqdaDdfX9TV3sVrVm" name="Page-1">
    <mxGraphModel dx="1422" dy="830" grid="1" gridSize="10" guides="1" tooltips="1" connect="1" arrows="1" fold="1" page="1" pageScale="1" pageWidth="850" pageHeight="1100" math="0" shadow="0">
      <root>
        <mxCell id="0" />
        <mxCell id="1" parent="0" />
        <mxCell id="OnPCaiBOU2DBpQOizJkD-10" style="edgeStyle=orthogonalEdgeStyle;rounded=0;orthogonalLoop=1;jettySize=auto;html=1;exitX=0.5;exitY=1;exitDx=0;exitDy=0;entryX=0.5;entryY=0;entryDx=0;entryDy=0;" edge="1" parent="1" source="OnPCaiBOU2DBpQOizJkD-1" target="OnPCaiBOU2DBpQOizJkD-2">
          <mxGeometry relative="1" as="geometry" />
        </mxCell>
        <mxCell id="OnPCaiBOU2DBpQOizJkD-1" value="Server Start" style="ellipse;whiteSpace=wrap;html=1;" vertex="1" parent="1">
          <mxGeometry x="140" y="40" width="130" height="40" as="geometry" />
        </mxCell>
        <mxCell id="OnPCaiBOU2DBpQOizJkD-11" style="edgeStyle=orthogonalEdgeStyle;rounded=0;orthogonalLoop=1;jettySize=auto;html=1;exitX=0.5;exitY=1;exitDx=0;exitDy=0;entryX=0.5;entryY=0;entryDx=0;entryDy=0;" edge="1" parent="1" source="OnPCaiBOU2DBpQOizJkD-2" target="OnPCaiBOU2DBpQOizJkD-3">
          <mxGeometry relative="1" as="geometry" />
        </mxCell>
        <mxCell id="OnPCaiBOU2DBpQOizJkD-2" value="Initial Setup" style="rounded=0;whiteSpace=wrap;html=1;" vertex="1" parent="1">
          <mxGeometry x="145" y="100" width="120" height="30" as="geometry" />
        </mxCell>
        <mxCell id="OnPCaiBOU2DBpQOizJkD-12" style="edgeStyle=orthogonalEdgeStyle;rounded=0;orthogonalLoop=1;jettySize=auto;html=1;exitX=0.5;exitY=1;exitDx=0;exitDy=0;entryX=0.5;entryY=0;entryDx=0;entryDy=0;" edge="1" parent="1" source="OnPCaiBOU2DBpQOizJkD-3" target="OnPCaiBOU2DBpQOizJkD-4">
          <mxGeometry relative="1" as="geometry" />
        </mxCell>
        <mxCell id="OnPCaiBOU2DBpQOizJkD-3" value="Await Packets/Connection" style="rounded=0;whiteSpace=wrap;html=1;" vertex="1" parent="1">
          <mxGeometry x="145" y="160" width="120" height="40" as="geometry" />
        </mxCell>
        <mxCell id="OnPCaiBOU2DBpQOizJkD-13" style="edgeStyle=orthogonalEdgeStyle;rounded=0;orthogonalLoop=1;jettySize=auto;html=1;exitX=0.5;exitY=1;exitDx=0;exitDy=0;entryX=0.5;entryY=0;entryDx=0;entryDy=0;" edge="1" parent="1" source="OnPCaiBOU2DBpQOizJkD-4" target="OnPCaiBOU2DBpQOizJkD-7">
          <mxGeometry relative="1" as="geometry" />
        </mxCell>
        <mxCell id="OnPCaiBOU2DBpQOizJkD-16" style="edgeStyle=orthogonalEdgeStyle;rounded=0;orthogonalLoop=1;jettySize=auto;html=1;exitX=1;exitY=0.5;exitDx=0;exitDy=0;entryX=0;entryY=0.5;entryDx=0;entryDy=0;" edge="1" parent="1" source="OnPCaiBOU2DBpQOizJkD-4" target="OnPCaiBOU2DBpQOizJkD-5">
          <mxGeometry relative="1" as="geometry" />
        </mxCell>
        <mxCell id="OnPCaiBOU2DBpQOizJkD-4" value="User Connect?" style="rhombus;whiteSpace=wrap;html=1;" vertex="1" parent="1">
          <mxGeometry x="150" y="230" width="110" height="110" as="geometry" />
        </mxCell>
        <mxCell id="OnPCaiBOU2DBpQOizJkD-17" style="edgeStyle=orthogonalEdgeStyle;rounded=0;orthogonalLoop=1;jettySize=auto;html=1;exitX=0.5;exitY=1;exitDx=0;exitDy=0;entryX=0.5;entryY=0;entryDx=0;entryDy=0;" edge="1" parent="1" source="OnPCaiBOU2DBpQOizJkD-5" target="OnPCaiBOU2DBpQOizJkD-6">
          <mxGeometry relative="1" as="geometry" />
        </mxCell>
        <mxCell id="OnPCaiBOU2DBpQOizJkD-5" value="Add client to connectedClients" style="rounded=0;whiteSpace=wrap;html=1;" vertex="1" parent="1">
          <mxGeometry x="330" y="255" width="120" height="60" as="geometry" />
        </mxCell>
        <mxCell id="OnPCaiBOU2DBpQOizJkD-18" style="edgeStyle=orthogonalEdgeStyle;rounded=0;orthogonalLoop=1;jettySize=auto;html=1;exitX=0;exitY=0.5;exitDx=0;exitDy=0;entryX=1;entryY=0.5;entryDx=0;entryDy=0;" edge="1" parent="1" source="OnPCaiBOU2DBpQOizJkD-6" target="OnPCaiBOU2DBpQOizJkD-7">
          <mxGeometry relative="1" as="geometry" />
        </mxCell>
        <mxCell id="OnPCaiBOU2DBpQOizJkD-6" value="Transmit new client to other clients" style="rounded=0;whiteSpace=wrap;html=1;" vertex="1" parent="1">
          <mxGeometry x="330" y="395" width="120" height="60" as="geometry" />
        </mxCell>
        <mxCell id="OnPCaiBOU2DBpQOizJkD-14" style="edgeStyle=orthogonalEdgeStyle;rounded=0;orthogonalLoop=1;jettySize=auto;html=1;exitX=0.5;exitY=1;exitDx=0;exitDy=0;entryX=0.5;entryY=0;entryDx=0;entryDy=0;" edge="1" parent="1" source="OnPCaiBOU2DBpQOizJkD-7" target="OnPCaiBOU2DBpQOizJkD-8">
          <mxGeometry relative="1" as="geometry" />
        </mxCell>
        <mxCell id="OnPCaiBOU2DBpQOizJkD-29" style="edgeStyle=orthogonalEdgeStyle;rounded=0;orthogonalLoop=1;jettySize=auto;html=1;exitX=0;exitY=0.5;exitDx=0;exitDy=0;entryX=0;entryY=0.5;entryDx=0;entryDy=0;fontSize=15;" edge="1" parent="1" source="OnPCaiBOU2DBpQOizJkD-7" target="OnPCaiBOU2DBpQOizJkD-4">
          <mxGeometry relative="1" as="geometry">
            <Array as="points">
              <mxPoint x="110" y="425" />
              <mxPoint x="110" y="285" />
            </Array>
          </mxGeometry>
        </mxCell>
        <mxCell id="OnPCaiBOU2DBpQOizJkD-7" value="Client Transmit?" style="rhombus;whiteSpace=wrap;html=1;" vertex="1" parent="1">
          <mxGeometry x="150" y="370" width="110" height="110" as="geometry" />
        </mxCell>
        <mxCell id="OnPCaiBOU2DBpQOizJkD-23" style="edgeStyle=orthogonalEdgeStyle;rounded=0;orthogonalLoop=1;jettySize=auto;html=1;exitX=0;exitY=0.5;exitDx=0;exitDy=0;entryX=0;entryY=0.5;entryDx=0;entryDy=0;fontSize=15;" edge="1" parent="1" source="OnPCaiBOU2DBpQOizJkD-8" target="OnPCaiBOU2DBpQOizJkD-4">
          <mxGeometry relative="1" as="geometry">
            <Array as="points">
              <mxPoint x="90" y="540" />
              <mxPoint x="90" y="285" />
            </Array>
          </mxGeometry>
        </mxCell>
        <mxCell id="OnPCaiBOU2DBpQOizJkD-8" value="Transmit to all clients" style="rounded=0;whiteSpace=wrap;html=1;" vertex="1" parent="1">
          <mxGeometry x="145" y="520" width="120" height="40" as="geometry" />
        </mxCell>
        <mxCell id="OnPCaiBOU2DBpQOizJkD-19" value="&lt;div style=&quot;font-size: 15px;&quot;&gt;Y&lt;/div&gt;" style="text;html=1;strokeColor=none;fillColor=none;align=center;verticalAlign=middle;whiteSpace=wrap;rounded=0;fontSize=15;fontStyle=1" vertex="1" parent="1">
          <mxGeometry x="200" y="490" width="40" height="20" as="geometry" />
        </mxCell>
        <mxCell id="OnPCaiBOU2DBpQOizJkD-20" value="Y" style="text;html=1;align=center;verticalAlign=middle;resizable=0;points=[];autosize=1;rounded=0;spacing=2;fontSize=15;fontStyle=1" vertex="1" parent="1">
          <mxGeometry x="275" y="255" width="30" height="30" as="geometry" />
        </mxCell>
        <mxCell id="OnPCaiBOU2DBpQOizJkD-21" value="N" style="text;html=1;align=center;verticalAlign=middle;resizable=0;points=[];autosize=1;fontSize=15;fontStyle=1" vertex="1" parent="1">
          <mxGeometry x="175" y="340" width="30" height="20" as="geometry" />
        </mxCell>
        <mxCell id="OnPCaiBOU2DBpQOizJkD-30" value="&lt;b&gt;N&lt;/b&gt;" style="text;html=1;strokeColor=none;fillColor=none;align=center;verticalAlign=middle;whiteSpace=wrap;rounded=0;fontSize=15;" vertex="1" parent="1">
          <mxGeometry x="105" y="400" width="40" height="20" as="geometry" />
        </mxCell>
        <mxCell id="OnPCaiBOU2DBpQOizJkD-34" value="Client" style="swimlane;fontStyle=0;childLayout=stackLayout;horizontal=1;startSize=26;fillColor=none;horizontalStack=0;resizeParent=1;resizeParentMax=0;resizeLast=0;collapsible=1;marginBottom=0;rounded=0;fontSize=15;" vertex="1" parent="1">
          <mxGeometry x="530" y="40" width="140" height="190" as="geometry">
            <mxRectangle x="540" y="56" width="70" height="26" as="alternateBounds" />
          </mxGeometry>
        </mxCell>
        <mxCell id="OnPCaiBOU2DBpQOizJkD-35" value="+ serverIP: int" style="text;strokeColor=none;fillColor=none;align=left;verticalAlign=top;spacingLeft=4;spacingRight=4;overflow=hidden;rotatable=0;points=[[0,0.5],[1,0.5]];portConstraint=eastwest;" vertex="1" parent="OnPCaiBOU2DBpQOizJkD-34">
          <mxGeometry y="26" width="140" height="26" as="geometry" />
        </mxCell>
        <mxCell id="OnPCaiBOU2DBpQOizJkD-36" value="+ location: coord" style="text;strokeColor=none;fillColor=none;align=left;verticalAlign=top;spacingLeft=4;spacingRight=4;overflow=hidden;rotatable=0;points=[[0,0.5],[1,0.5]];portConstraint=eastwest;" vertex="1" parent="OnPCaiBOU2DBpQOizJkD-34">
          <mxGeometry y="52" width="140" height="26" as="geometry" />
        </mxCell>
        <mxCell id="OnPCaiBOU2DBpQOizJkD-68" value="+ name: string" style="text;strokeColor=none;fillColor=none;align=left;verticalAlign=top;spacingLeft=4;spacingRight=4;overflow=hidden;rotatable=0;points=[[0,0.5],[1,0.5]];portConstraint=eastwest;rounded=0;fontSize=12;" vertex="1" parent="OnPCaiBOU2DBpQOizJkD-34">
          <mxGeometry y="78" width="140" height="26" as="geometry" />
        </mxCell>
        <mxCell id="OnPCaiBOU2DBpQOizJkD-45" value="" style="line;strokeWidth=1;fillColor=none;align=left;verticalAlign=middle;spacingTop=-1;spacingLeft=3;spacingRight=3;rotatable=0;labelPosition=right;points=[];portConstraint=eastwest;rounded=0;fontSize=12;" vertex="1" parent="OnPCaiBOU2DBpQOizJkD-34">
          <mxGeometry y="104" width="140" height="8" as="geometry" />
        </mxCell>
        <mxCell id="OnPCaiBOU2DBpQOizJkD-67" value="+ awaitData(): void" style="text;strokeColor=none;fillColor=none;align=left;verticalAlign=top;spacingLeft=4;spacingRight=4;overflow=hidden;rotatable=0;points=[[0,0.5],[1,0.5]];portConstraint=eastwest;rounded=0;fontSize=12;" vertex="1" parent="OnPCaiBOU2DBpQOizJkD-34">
          <mxGeometry y="112" width="140" height="26" as="geometry" />
        </mxCell>
        <mxCell id="OnPCaiBOU2DBpQOizJkD-44" value="+ sendCoord(): void" style="text;strokeColor=none;fillColor=none;align=left;verticalAlign=top;spacingLeft=4;spacingRight=4;overflow=hidden;rotatable=0;points=[[0,0.5],[1,0.5]];portConstraint=eastwest;rounded=0;fontSize=12;" vertex="1" parent="OnPCaiBOU2DBpQOizJkD-34">
          <mxGeometry y="138" width="140" height="26" as="geometry" />
        </mxCell>
        <mxCell id="OnPCaiBOU2DBpQOizJkD-46" value="+ sendComms(): void" style="text;strokeColor=none;fillColor=none;align=left;verticalAlign=top;spacingLeft=4;spacingRight=4;overflow=hidden;rotatable=0;points=[[0,0.5],[1,0.5]];portConstraint=eastwest;rounded=0;fontSize=12;" vertex="1" parent="OnPCaiBOU2DBpQOizJkD-34">
          <mxGeometry y="164" width="140" height="26" as="geometry" />
        </mxCell>
        <mxCell id="OnPCaiBOU2DBpQOizJkD-38" value="coord" style="swimlane;fontStyle=0;childLayout=stackLayout;horizontal=1;startSize=26;fillColor=none;horizontalStack=0;resizeParent=1;resizeParentMax=0;resizeLast=0;collapsible=1;marginBottom=0;rounded=0;fontSize=15;" vertex="1" parent="1">
          <mxGeometry x="380" y="40" width="140" height="78" as="geometry" />
        </mxCell>
        <mxCell id="OnPCaiBOU2DBpQOizJkD-39" value="+ x: int" style="text;strokeColor=none;fillColor=none;align=left;verticalAlign=top;spacingLeft=4;spacingRight=4;overflow=hidden;rotatable=0;points=[[0,0.5],[1,0.5]];portConstraint=eastwest;" vertex="1" parent="OnPCaiBOU2DBpQOizJkD-38">
          <mxGeometry y="26" width="140" height="26" as="geometry" />
        </mxCell>
        <mxCell id="OnPCaiBOU2DBpQOizJkD-40" value="+ y: int" style="text;strokeColor=none;fillColor=none;align=left;verticalAlign=top;spacingLeft=4;spacingRight=4;overflow=hidden;rotatable=0;points=[[0,0.5],[1,0.5]];portConstraint=eastwest;" vertex="1" parent="OnPCaiBOU2DBpQOizJkD-38">
          <mxGeometry y="52" width="140" height="26" as="geometry" />
        </mxCell>
        <mxCell id="OnPCaiBOU2DBpQOizJkD-51" value="Server" style="swimlane;fontStyle=0;childLayout=stackLayout;horizontal=1;startSize=26;fillColor=none;horizontalStack=0;resizeParent=1;resizeParentMax=0;resizeLast=0;collapsible=1;marginBottom=0;rounded=0;fontSize=12;" vertex="1" parent="1">
          <mxGeometry x="530" y="340" width="220" height="234" as="geometry" />
        </mxCell>
        <mxCell id="OnPCaiBOU2DBpQOizJkD-52" value="+ connectedClients: &#xa;vector&lt;serverClient&gt;" style="text;strokeColor=none;fillColor=none;align=left;verticalAlign=top;spacingLeft=4;spacingRight=4;overflow=hidden;rotatable=0;points=[[0,0.5],[1,0.5]];portConstraint=eastwest;" vertex="1" parent="OnPCaiBOU2DBpQOizJkD-51">
          <mxGeometry y="26" width="220" height="44" as="geometry" />
        </mxCell>
        <mxCell id="OnPCaiBOU2DBpQOizJkD-53" value="+ serverIP: int" style="text;strokeColor=none;fillColor=none;align=left;verticalAlign=top;spacingLeft=4;spacingRight=4;overflow=hidden;rotatable=0;points=[[0,0.5],[1,0.5]];portConstraint=eastwest;" vertex="1" parent="OnPCaiBOU2DBpQOizJkD-51">
          <mxGeometry y="70" width="220" height="26" as="geometry" />
        </mxCell>
        <mxCell id="OnPCaiBOU2DBpQOizJkD-55" value="" style="line;strokeWidth=1;fillColor=none;align=left;verticalAlign=middle;spacingTop=-1;spacingLeft=3;spacingRight=3;rotatable=0;labelPosition=right;points=[];portConstraint=eastwest;rounded=0;fontSize=12;" vertex="1" parent="OnPCaiBOU2DBpQOizJkD-51">
          <mxGeometry y="96" width="220" height="8" as="geometry" />
        </mxCell>
        <mxCell id="OnPCaiBOU2DBpQOizJkD-54" value="+ transmitLocations(): void" style="text;strokeColor=none;fillColor=none;align=left;verticalAlign=top;spacingLeft=4;spacingRight=4;overflow=hidden;rotatable=0;points=[[0,0.5],[1,0.5]];portConstraint=eastwest;" vertex="1" parent="OnPCaiBOU2DBpQOizJkD-51">
          <mxGeometry y="104" width="220" height="26" as="geometry" />
        </mxCell>
        <mxCell id="OnPCaiBOU2DBpQOizJkD-57" value="+ transmitVoice(): void" style="text;strokeColor=none;fillColor=none;align=left;verticalAlign=top;spacingLeft=4;spacingRight=4;overflow=hidden;rotatable=0;points=[[0,0.5],[1,0.5]];portConstraint=eastwest;rounded=0;fontSize=12;" vertex="1" parent="OnPCaiBOU2DBpQOizJkD-51">
          <mxGeometry y="130" width="220" height="26" as="geometry" />
        </mxCell>
        <mxCell id="OnPCaiBOU2DBpQOizJkD-69" value="+ nearbyUsers(serverClient): &#xa;vector&lt;serverClient&gt;" style="text;strokeColor=none;fillColor=none;align=left;verticalAlign=top;spacingLeft=4;spacingRight=4;overflow=hidden;rotatable=0;points=[[0,0.5],[1,0.5]];portConstraint=eastwest;rounded=0;fontSize=12;" vertex="1" parent="OnPCaiBOU2DBpQOizJkD-51">
          <mxGeometry y="156" width="220" height="34" as="geometry" />
        </mxCell>
        <mxCell id="OnPCaiBOU2DBpQOizJkD-58" value="+ binaurifyVoice(vector&lt;serverclient&gt;): &#xa;vector&lt;audioPacketTbd&gt;" style="text;strokeColor=none;fillColor=none;align=left;verticalAlign=top;spacingLeft=4;spacingRight=4;overflow=hidden;rotatable=0;points=[[0,0.5],[1,0.5]];portConstraint=eastwest;rounded=0;fontSize=12;" vertex="1" parent="OnPCaiBOU2DBpQOizJkD-51">
          <mxGeometry y="190" width="220" height="44" as="geometry" />
        </mxCell>
        <mxCell id="OnPCaiBOU2DBpQOizJkD-59" value="nearbyUser" style="swimlane;fontStyle=0;childLayout=stackLayout;horizontal=1;startSize=26;fillColor=none;horizontalStack=0;resizeParent=1;resizeParentMax=0;resizeLast=0;collapsible=1;marginBottom=0;rounded=0;fontSize=12;" vertex="1" parent="1">
          <mxGeometry x="530" y="246" width="140" height="78" as="geometry" />
        </mxCell>
        <mxCell id="OnPCaiBOU2DBpQOizJkD-60" value="+ user: serverClient" style="text;strokeColor=none;fillColor=none;align=left;verticalAlign=top;spacingLeft=4;spacingRight=4;overflow=hidden;rotatable=0;points=[[0,0.5],[1,0.5]];portConstraint=eastwest;" vertex="1" parent="OnPCaiBOU2DBpQOizJkD-59">
          <mxGeometry y="26" width="140" height="26" as="geometry" />
        </mxCell>
        <mxCell id="OnPCaiBOU2DBpQOizJkD-61" value="+ sendVol: int" style="text;strokeColor=none;fillColor=none;align=left;verticalAlign=top;spacingLeft=4;spacingRight=4;overflow=hidden;rotatable=0;points=[[0,0.5],[1,0.5]];portConstraint=eastwest;" vertex="1" parent="OnPCaiBOU2DBpQOizJkD-59">
          <mxGeometry y="52" width="140" height="26" as="geometry" />
        </mxCell>
        <mxCell id="OnPCaiBOU2DBpQOizJkD-63" value="serverClient" style="swimlane;fontStyle=0;childLayout=stackLayout;horizontal=1;startSize=26;fillColor=none;horizontalStack=0;resizeParent=1;resizeParentMax=0;resizeLast=0;collapsible=1;marginBottom=0;rounded=0;fontSize=12;" vertex="1" parent="1">
          <mxGeometry x="690" y="40" width="140" height="104" as="geometry" />
        </mxCell>
        <mxCell id="OnPCaiBOU2DBpQOizJkD-64" value="+ userIP: int" style="text;strokeColor=none;fillColor=none;align=left;verticalAlign=top;spacingLeft=4;spacingRight=4;overflow=hidden;rotatable=0;points=[[0,0.5],[1,0.5]];portConstraint=eastwest;" vertex="1" parent="OnPCaiBOU2DBpQOizJkD-63">
          <mxGeometry y="26" width="140" height="26" as="geometry" />
        </mxCell>
        <mxCell id="OnPCaiBOU2DBpQOizJkD-65" value="+ location: coord" style="text;strokeColor=none;fillColor=none;align=left;verticalAlign=top;spacingLeft=4;spacingRight=4;overflow=hidden;rotatable=0;points=[[0,0.5],[1,0.5]];portConstraint=eastwest;" vertex="1" parent="OnPCaiBOU2DBpQOizJkD-63">
          <mxGeometry y="52" width="140" height="26" as="geometry" />
        </mxCell>
        <mxCell id="OnPCaiBOU2DBpQOizJkD-66" value="+ name: string" style="text;strokeColor=none;fillColor=none;align=left;verticalAlign=top;spacingLeft=4;spacingRight=4;overflow=hidden;rotatable=0;points=[[0,0.5],[1,0.5]];portConstraint=eastwest;" vertex="1" parent="OnPCaiBOU2DBpQOizJkD-63">
          <mxGeometry y="78" width="140" height="26" as="geometry" />
        </mxCell>
      </root>
    </mxGraphModel>
  </diagram>
</mxfile>
